<?xml version="1.0" encoding="UTF-8"?>
<svg version="1.1" xmlns="http://www.w3.org/2000/svg" width="192" height="192">
<path d="M0 0 C63.36 0 126.72 0 192 0 C192 63.36 192 126.72 192 192 C128.64 192 65.28 192 0 192 C0 128.64 0 65.28 0 0 Z " fill="#FDFDFD" transform="translate(0,0)"/>
<path d="M0 0 C5.22864743 -0.07476069 10.45697628 -0.12888763 15.68603516 -0.16479492 C17.46082996 -0.17978093 19.23558837 -0.20017682 21.01025391 -0.22631836 C34.40087057 -0.41847409 45.59865644 -0.48428775 56 9 C61.09887329 14.37448806 63.16610109 19.51280517 63.4375 26.8125 C63.16738794 35.82749014 60.09304458 42.74116842 53.94140625 49.3046875 C50.64614527 52.18223934 46.503038 55 42 55 C48.08988382 64.81514898 54.26483571 74.56949676 60.5546875 84.2578125 C60.96557617 84.89106445 61.37646484 85.52431641 61.79980469 86.17675781 C62.59000159 87.37716271 63.39250977 88.56956753 64.20800781 89.75292969 C67 93.8048727 67 93.8048727 67 96 C59.41 96 51.82 96 44 96 C42.948125 94.123125 41.89625 92.24625 40.8125 90.3125 C36.51544072 82.70842239 31.88883513 75.31379749 27.21801758 67.93481445 C26.67169678 67.06429443 26.12537598 66.19377441 25.5625 65.296875 C25.06878906 64.51666992 24.57507813 63.73646484 24.06640625 62.93261719 C23 61 23 61 23 59 C15.41 59 7.82 59 0 59 C0 54.05 0 49.1 0 44 C1.98902344 43.97421875 3.97804688 43.9484375 6.02734375 43.921875 C7.98350939 43.88010634 9.93967455 43.83819532 11.89575195 43.79248047 C13.89706771 43.75084123 15.8987594 43.7287345 17.90039062 43.70703125 C25.224131 43.52255416 31.76972399 43.19616507 38 39 C41.27308593 34.83425427 41.58478004 30.50016949 41.4140625 25.33984375 C41.12214372 22.71982019 41.12214372 22.71982019 38.875 20 C33.75387251 16.43747653 29.00695142 15.74376799 22.8515625 15.5859375 C21.86547501 15.55688828 21.86547501 15.55688828 20.85946655 15.5272522 C18.78143865 15.46797539 16.70335376 15.42128206 14.625 15.375 C13.2070085 15.33677222 11.78903903 15.29771777 10.37109375 15.2578125 C6.91418405 15.16077644 3.45747888 15.08080209 0 15 C0 10.05 0 5.1 0 0 Z " fill="#0E0E0E" transform="translate(89,35)"/>
<path d="M0 0 C1.13115234 -0.00580078 1.13115234 -0.00580078 2.28515625 -0.01171875 C5.53202205 -0.00595167 8.14887065 0.09129022 11.25 1.125 C11.25 6.735 11.25 12.345 11.25 18.125 C9.93 17.795 8.61 17.465 7.25 17.125 C-2.23107495 16.46500549 -9.90735003 17.05177983 -18 22.1875 C-23.43168122 27.16528028 -26.43592472 34.91423406 -26.87231445 42.15429688 C-26.95695926 44.56219868 -26.98491829 46.9656976 -27 49.375 C-27.020625 50.18324219 -27.04125 50.99148437 -27.0625 51.82421875 C-27.12125817 61.00518257 -24.30833702 68.82449764 -18.75 76.125 C-13.46524738 81.40975262 -7.47721434 83.29508463 -0.125 83.375 C3.84747582 83.30510306 7.25849152 82.79025141 11.25 82.125 C11.25 87.735 11.25 93.345 11.25 99.125 C7.64536204 99.20685469 4.0426307 99.26591062 0.4375 99.3125 C-0.56732422 99.33763672 -1.57214844 99.36277344 -2.60742188 99.38867188 C-15.43510647 99.5124116 -25.06430923 96.21640714 -34.5625 87.5625 C-44.8990851 76.04459089 -47.9957471 64.34546539 -48.0625 49 C-48.06797852 48.08202637 -48.07345703 47.16405273 -48.07910156 46.21826172 C-47.94279918 33.09798252 -44.86697559 21.73525091 -35.765625 11.94140625 C-25.5437973 2.72987548 -13.4067124 -0.07019221 0 0 Z " fill="#040404" transform="translate(68.75,33.875)"/>
<path d="M0 0 C0.79792969 -0.00128906 1.59585938 -0.00257812 2.41796875 -0.00390625 C3.24683594 -0.00003906 4.07570313 0.00382812 4.9296875 0.0078125 C6.18458984 0.00201172 6.18458984 0.00201172 7.46484375 -0.00390625 C13.67803876 0.00616376 13.67803876 0.00616376 14.8046875 1.1328125 C14.87674261 2.81890216 14.88854818 4.50781909 14.8671875 6.1953125 C14.85816406 7.11441406 14.84914062 8.03351563 14.83984375 8.98046875 C14.82824219 9.69074219 14.81664062 10.40101562 14.8046875 11.1328125 C14.25683594 10.80925781 13.70898438 10.48570313 13.14453125 10.15234375 C8.09327353 7.95137837 1.88859335 8.35134781 -3.1953125 10.2578125 C-6.72869467 13.57035829 -8.07246245 17.00548266 -8.59375 21.7890625 C-8.58601563 23.0575 -8.57828125 24.3259375 -8.5703125 25.6328125 C-8.57804687 26.90125 -8.58578125 28.1696875 -8.59375 29.4765625 C-8.05294977 34.43919987 -6.38633583 37.7184723 -3.1953125 41.5078125 C2.420212 44.54955493 8.773479 43.64061463 14.8046875 42.1328125 C14.8046875 45.1028125 14.8046875 48.0728125 14.8046875 51.1328125 C8.85727509 54.10651871 2.62549845 54.19097122 -3.8046875 52.41015625 C-8.51986818 50.45604613 -11.85572284 48.06174151 -15.1953125 44.1328125 C-15.7521875 43.5140625 -16.3090625 42.8953125 -16.8828125 42.2578125 C-20.07303207 37.0926951 -20.46968528 31.51117678 -20.4453125 25.5703125 C-20.45304687 23.68119141 -20.45304687 23.68119141 -20.4609375 21.75390625 C-20.00638059 15.55722605 -18.02734845 11.00053384 -14.1953125 6.1328125 C-9.75753287 2.36373939 -5.95339339 0.00917318 0 0 Z " fill="#090909" transform="translate(65.1953125,58.8671875)"/>
</svg>
